<svg width="332" height="58" viewBox="0 0 332 58" fill="none" xmlns="http://www.w3.org/2000/svg">
<path d="M292.021 57.0368H303.068V39.5628L318.483 57.0368H332L314.054 36.8982L329.384 19.4363H317.084L303.068 35.5306V0L292.021 1.41563V57.0368ZM266.544 18.4731C254.28 18.4731 245.764 26.5379 245.764 38.2307C245.764 49.9235 254.28 57.9883 266.544 57.9883C278.808 57.9883 287.325 49.9235 287.325 38.2307C287.325 26.5379 278.808 18.4731 266.544 18.4731ZM266.544 48.7816C260.862 48.7816 256.969 44.4874 256.969 38.2307C256.969 31.974 260.862 27.6798 266.544 27.6798C272.226 27.6798 276.119 31.974 276.119 38.2307C276.119 44.4874 272.226 48.7816 266.544 48.7816ZM221.649 18.4731C209.386 18.4731 200.869 26.5379 200.869 38.2307C200.869 49.9235 209.386 57.9883 221.649 57.9883C233.913 57.9883 242.43 49.9235 242.43 38.2307C242.43 26.5379 233.913 18.4731 221.649 18.4731ZM221.649 48.7816C215.968 48.7816 212.075 44.4874 212.075 38.2307C212.075 31.974 215.968 27.6798 221.649 27.6798C227.331 27.6798 231.224 31.974 231.224 38.2307C231.224 44.4874 227.331 48.7816 221.649 48.7816ZM179.371 18.4731C174.261 18.4731 170.027 20.4357 167.375 24.0279V0L156.315 1.40354V57.0247H166.122L166.316 51.2201C168.932 55.5498 173.616 57.9883 179.371 57.9883C189.859 57.9883 197.536 49.6616 197.536 38.2307C197.536 26.7994 189.895 18.4731 179.371 18.4731ZM176.755 48.7816C171.073 48.7816 167.18 44.4874 167.18 38.2307C167.18 31.974 171.073 27.6798 176.755 27.6798C182.437 27.6798 186.33 31.974 186.33 38.2307C186.33 44.4874 182.437 48.7816 176.755 48.7816ZM134.172 49.2692C128.308 49.2692 124.098 46.6047 122.663 42.0134H149.879C150.147 40.6099 150.33 38.9444 150.33 37.8262C150.33 25.7289 143.407 18.4731 131.775 18.4731C120.035 18.4731 111.908 26.5379 111.908 38.2307C111.908 50.0781 120.424 57.9883 133.065 57.9883C139.611 57.9883 145.974 55.8473 149.952 52.2906L145.974 45.4393C142.117 48.0441 138.333 49.2692 134.172 49.2692ZM131.702 26.8709C136.812 26.8709 140.073 29.904 140.073 34.6026V34.6385H122.432C123.49 29.6545 126.787 26.8709 131.702 26.8709ZM94.6068 58C100.325 58 105.922 55.859 109.863 52.1477L105.544 45.0465C102.478 47.378 98.999 48.6387 95.7018 48.6387C89.5698 48.6387 85.4819 44.4515 85.4819 38.2424C85.4819 32.0333 89.5698 27.8461 95.7018 27.8461C98.7311 27.8461 102.028 28.9167 104.705 30.8082L109.097 23.552C105.544 20.4119 100.045 18.4848 94.5945 18.4848C82.5984 18.4848 74.1184 26.6687 74.1184 38.2424C74.1304 49.7807 82.6104 58 94.6068 58ZM59.482 19.4363L59.2875 25.2889C56.6715 20.9234 51.9875 18.4848 46.2328 18.4848C35.7087 18.4848 28.068 26.8115 28.068 38.2424C28.068 49.6737 35.7574 58 46.2328 58C51.9875 58 56.6835 55.5615 59.2875 51.2318L59.482 57.0365H69.2882V19.4363H59.482ZM48.8484 48.7816C43.1668 48.7816 39.2734 44.4874 39.2734 38.2307C39.2734 31.974 43.1668 27.6798 48.8484 27.6798C54.5304 27.6798 58.4234 31.974 58.4234 38.2307C58.4234 44.4874 54.518 48.7816 48.8484 48.7816ZM27.2406 19.507H17.3007V16.2951C17.3007 11.4895 19.223 9.64597 24.2114 9.64597C25.7563 9.64597 27.0094 9.68151 27.7274 9.75295V1.50978C26.3645 1.14085 23.0433 0.772293 21.121 0.772293C10.9618 0.772293 6.27777 5.45881 6.27777 15.5814V19.4949H0V28.5829H6.27777V57.024H17.3127V28.5946H25.5375L27.2406 19.507Z" fill="#0866FF"/>
</svg>
